# Blender v2.79 (sub 0) OBJ File: 'aquent-set.blend'
# www.blender.org
mtllib area_Arborway.mtl
o area_Arborway_Curve.015
v -0.186754 0.001079 0.013074
v -0.214420 0.001079 0.013074
v -0.214420 0.001079 0.011381
v -0.217804 0.001079 0.011381
v -0.217804 0.001079 -0.012039
v -0.214420 0.001079 -0.012039
v -0.214420 0.001079 -0.014014
v -0.213009 0.001079 -0.014014
v -0.186754 0.001079 -0.014014
vn 0.0000 1.0000 0.0000
usemtl green
s off
f 6//1 8//1 7//1
f 6//1 9//1 8//1
f 6//1 1//1 9//1
f 4//1 6//1 5//1
f 4//1 3//1 6//1
f 3//1 1//1 6//1
f 2//1 1//1 3//1
