# Blender v2.79 (sub 0) OBJ File: 'aquent-set.blend'
# www.blender.org
mtllib area_Pergola.mtl
o area_Pergola_Curve.014
v -0.298899 0.001079 -0.126882
v -0.298899 0.001079 0.065275
v -0.160611 0.001079 0.065275
v -0.160611 0.001079 -0.126882
v -0.183934 0.001079 -0.048157
v -0.183934 0.001079 -0.046746
v -0.183934 0.001079 -0.043924
v -0.183934 0.001079 -0.016836
v -0.183934 0.001079 -0.014014
v -0.183934 0.001079 0.015896
v -0.214420 0.001079 0.015896
v -0.214420 0.001079 0.018153
v -0.221188 0.001079 0.018153
v -0.221188 0.001079 0.011381
v -0.220624 0.001079 0.011381
v -0.220624 0.001079 -0.012039
v -0.221188 0.001079 -0.012039
v -0.221188 0.001079 -0.018811
v -0.220624 0.001079 -0.018811
v -0.220624 0.001079 -0.020222
v -0.220624 0.001079 -0.041949
v -0.221188 0.001079 -0.041949
v -0.221188 0.001079 -0.048157
v -0.221188 0.001079 -0.048721
v -0.220624 0.001079 -0.048721
v -0.220624 0.001079 -0.050132
v -0.220624 0.001079 -0.070448
v -0.220624 0.001079 -0.071859
v -0.221188 0.001079 -0.071859
v -0.221188 0.001079 -0.078066
v -0.214420 0.001079 -0.078066
v -0.214420 0.001079 -0.076656
v -0.213009 0.001079 -0.076656
v -0.183934 0.001079 -0.076656
vn 0.0000 1.0000 0.0000
vn 0.0000 0.0000 1.0000
usemtl teal
s off
f 2//1 30//1 1//1
f 30//1 4//1 1//1
f 30//1 31//1 4//1
f 31//1 34//1 4//1
f 34//1 3//1 4//1
f 2//1 29//1 30//1
f 32//1 34//1 31//1
f 33//2 34//2 32//2
f 5//1 3//1 34//1
f 2//1 28//1 29//1
f 2//1 27//1 28//1
f 2//1 26//1 27//1
f 2//1 24//1 26//1
f 24//1 25//1 26//1
f 2//1 23//1 24//1
f 2//1 22//1 23//1
f 6//1 3//1 5//1
f 7//1 3//1 6//1
f 8//1 3//1 7//1
f 2//1 21//1 22//1
f 2//1 20//1 21//1
f 2//1 18//1 20//1
f 18//1 19//1 20//1
f 2//1 17//1 18//1
f 9//1 3//1 8//1
f 10//1 3//1 9//1
f 2//1 16//1 17//1
f 2//1 14//1 16//1
f 14//1 15//1 16//1
f 2//1 13//1 14//1
f 12//1 10//1 11//1
f 12//1 3//1 10//1
f 2//1 12//1 13//1
f 2//1 3//1 12//1
