# Blender v2.79 (sub 0) OBJ File: 'aquent-set.blend'
# www.blender.org
mtllib area_Greenway.mtl
o area_Greenway_Curve.017
v -0.217804 0.001079 -0.041949
v -0.214420 0.001079 -0.041949
v -0.214420 0.001079 -0.043924
v -0.186754 0.001079 -0.043924
v -0.186754 0.001079 -0.016836
v -0.214420 0.001079 -0.016836
v -0.214412 0.001079 -0.018818
v -0.217804 0.001079 -0.018811
vn 0.0000 1.0000 0.0000
usemtl green
s off
f 2//1 4//1 3//1
f 2//1 5//1 4//1
f 8//1 2//1 1//1
f 8//1 7//1 2//1
f 7//1 5//1 2//1
f 6//1 5//1 7//1
