# Blender v2.79 (sub 0) OBJ File: 'aquent-set.blend'
# www.blender.org
mtllib area_Riverway.mtl
o area_Riverway_Curve.016
v -0.186754 0.001079 -0.048157
v -0.186754 0.001079 -0.046746
v -0.213009 0.001079 -0.046746
v -0.214420 0.001079 -0.046746
v -0.214420 0.001079 -0.048157
v -0.214420 0.001079 -0.048721
v -0.217804 0.001079 -0.048721
v -0.217804 0.001079 -0.050132
v -0.217804 0.001079 -0.070448
v -0.217804 0.001079 -0.071859
v -0.214420 0.001079 -0.071859
v -0.214420 0.001079 -0.073834
v -0.213009 0.001079 -0.073834
v -0.186754 0.001079 -0.073834
vn 0.0000 1.0000 0.0000
vn 0.0000 0.0000 1.0000
usemtl green
s off
f 11//1 13//1 12//1
f 11//1 14//1 13//1
f 11//1 1//1 14//1
f 9//1 11//1 10//1
f 9//1 1//1 11//1
f 8//1 1//1 9//1
f 7//1 6//1 8//1
f 6//1 1//1 8//1
f 5//1 1//1 6//1
f 4//1 1//1 5//1
f 4//1 2//1 1//1
f 3//2 2//2 4//2
