<?xml version="1.0" encoding="utf-8"?>
<!-- Generator: Adobe Illustrator 16.0.0, SVG Export Plug-In . SVG Version: 6.00 Build 0)  -->
<!DOCTYPE svg PUBLIC "-//W3C//DTD SVG 1.1//EN" "http://www.w3.org/Graphics/SVG/1.1/DTD/svg11.dtd">
<svg version="1.1" xmlns="http://www.w3.org/2000/svg" xmlns:xlink="http://www.w3.org/1999/xlink" x="0px" y="0px" width="2487px"
	 height="1719px" viewBox="0 0 2487 1719" enable-background="new 0 0 2487 1719" xml:space="preserve">
<g id="Layer_4">
	<rect x="10.651" y="10" fill="#448F83" width="496" height="385"/>
	<polygon fill="#448F83" points="516.132,10 1350,10 1350,298.12 1124,298 1124,395 1153.75,395 1153.75,498.273 516.132,498.273 	
		"/>
	<polygon fill="#448F83" points="1610.623,10 2190.05,10 1967,416.074 1967,435.318 1930.001,435.305 1930,338 1590,338 
		1590,435.318 1417.032,435.12 1417.032,244.273 1610.623,244.273 	"/>
	<polygon fill="#448F83" points="2477.285,10 2202.05,10 1976.984,418.648 1976.984,435.318 2477.285,435.12 2477.285,244.273 
		2477.285,244.273 	"/>
	<g>
		<rect x="1360" y="10" fill="#1F9E00" width="68" height="67.75"/>
		<polygon fill="#1F9E00" points="1360,87.75 1428,87.75 1428,124.25 1428,134.25 1428,159.75 1360,159.75 		"/>
		<rect x="1360" y="169.75" fill="#1F9E00" width="68" height="64.25"/>
		<polygon fill="#1F9E00" points="1438,77.75 1438,10 1600.984,10 1600.984,124.25 1438,124.25 		"/>
	</g>
	<polygon fill="#1F9E00" points="1438,169.75 1438,134.25 1600.984,134.25 1600.984,233.979 1438,233.979 	"/>
	<g>
		<polygon fill="#1F9E00" points="244,1386 244,1290 244,1209 244,1096 246,1096 405,1096 405,1386 246,1386 		"/>
		<rect x="10" y="1096" fill="#1F9E00" width="224" height="103"/>
	</g>
	<polygon fill="#6082C0" points="10.651,1709 500.636,1709 500.636,1096 415,1096 415,1396 10,1396 	"/>
	<polygon fill="#658864" points="509.335,1709 933.378,1709 933.378,1649 784,1649 784,1422 674,1422 674,1218.863 
		509.638,1218.863 	"/>
	<polygon fill="#EA9B23" points="882.849,1412 683,1412 683,1218.863 883.152,1218.863 	"/>
	<path fill="#448F83" d="M10.651,405v681h489.985V405H10.651z M418,684v5v10v96v10v106H309.979v8H286v-24h1.998v-83H286v-24h1.998
		v-5v-77H286v-22v-2h1.998v-5v-72v-5H286v-22h23.979v5h5H418V684z"/>
	<g>
		<polygon fill="#1F9E00" points="408.008,901 309.979,901 309.979,895 297.99,895 297.99,812 309.979,812 309.979,805 314.979,805 
			408.008,805 		"/>
		<polygon fill="#1F9E00" points="408.008,684 408.008,689 314.979,689 309.979,689 309.979,684 309.979,682 297.99,682 297.99,677 
			297.99,605 297.99,600 309.979,600 309.979,593 314.979,593 408.008,593 		"/>
	</g>
</g>
<g id="Layer_2">
	<polygon fill="#1F9E00" points="297.99,706 309.979,706 309.979,699 408.008,699 408.008,795 309.979,795 310.008,787.976 
		297.99,788 	"/>
	<rect x="1820" y="348.083" fill="#1F9E00" width="100" height="86.917"/>
	<rect x="1710" y="348.083" fill="#1F9E00" width="100" height="86.917"/>
	<rect x="1600" y="348.083" fill="#1F9E00" width="100" height="86.917"/>
</g>
</svg>
