<?xml version="1.0" encoding="utf-8"?>
<!-- Generator: Adobe Illustrator 16.0.0, SVG Export Plug-In . SVG Version: 6.00 Build 0)  -->
<!DOCTYPE svg PUBLIC "-//W3C//DTD SVG 1.1//EN" "http://www.w3.org/Graphics/SVG/1.1/DTD/svg11.dtd">
<svg version="1.1" xmlns="http://www.w3.org/2000/svg" xmlns:xlink="http://www.w3.org/1999/xlink" x="0px" y="0px" width="2487px"
	 height="1719px" viewBox="0 0 2487 1719" enable-background="new 0 0 2487 1719" xml:space="preserve">
<g id="Layer_3">
	<polygon fill="#FFFFFF" points="933.378,1709 933.378,1218.863 500.636,1218.863 500.636,498.273 1153.864,498.273 
		1153.864,435.318 2477,435.318 2477,10 10,10 10,1709 	"/>
</g>
<g id="Layer_2">
	<path d="M1124,395h293v-97h-293V395z M1134,308h273v77h-273V308z"/>
	<rect x="485" y="1432" width="50" height="52"/>
	<rect x="498" y="1358" width="24" height="26"/>
	<rect x="498" y="1279" width="24" height="26"/>
	<rect x="393" y="1005" width="24" height="24"/>
	<path d="M314.979,583h-5v-5H286v22h1.998v5v72v5H286v2v22h1.998v77v5H286v24h1.998v83H286v24h23.979v-8H418V805v-10v-96v-10v-5V583
		H314.979z M408.008,901h-98.029v-6h-11.99v-83h11.99v-7h5h93.029V901z M408.008,795h-93.029h-5v-7h-11.99v-5v-77h11.99v-7h5h93.029
		V795z M408.008,684v5h-93.029h-5v-5v-2h-11.99v-5v-72v-5h11.99v-7h5h93.029V684z"/>
	<rect x="286" y="1005" width="24" height="24"/>
	<rect x="399" y="468" width="18" height="18"/>
	<rect x="286" y="468" width="18" height="18"/>
	<rect x="485" y="1564" width="50" height="52"/>
	<polygon points="794,1412 784,1412 674,1412 674,1422 784,1422 784,1649 794,1649 794,1422 883,1422 883,1412 	"/>
	<path d="M1610.984,0v-0.5H1428V0H0v1086v123v81v106v323h943.378v-510.137H510.636v-700.59h653.228v-62.955H2487V0H1610.984z
		 M1438,77.75V10h162.984v114.25H1438V77.75z M1438,169.75v-35.5h162.984v99.729H1438V169.75z M1360,10h68v67.75h-68V10z
		 M1360,87.75h68v36.5v10v25.5h-68V87.75z M1360,169.75h68V234h-68V169.75z M10,10h496v385H10V10z M10,1096h224v103H10V1096z
		 M10,1209h224v81H10V1209z M10,1300h224v86h-50h-10h-50h-10H64H54H10V1300z M1600,435v-86.917h100V435H1600z M1810,435.318h-100
		V435v-86.917h100V435V435.318z M1820,435v-86.917h99.999l0.001-0.001V435H1820z M2477,435.318h-500.016v-16.67L2069,251.828
		l-8.741-4.828L1967,416.074v19.244h-37V338h-10v0.083h-100V338h-10v0.083h-100V338h-10v0.083h-100V338h-10v97.318h-436.136v62.955
		H1084V419h-10v79.273H918V419h-10v79.273H767V419h-10v79.273H628V419h-10v79.273H500.636v720.59h432.742V1709H10v-313h44v53h10v-53
		h50v53h10v-53h50v53h10v-53h50v53h10v-53h2h169v-310H246h-10h-2H10V405h506V10h834v67.75v92V244h261V10h579.354L2103,168.158
		l8.779,4.842l90.029-163H2477V435.318z M244,1386v-96v-81v-113h2h159v290H246H244z"/>
</g>
</svg>
